<?xml version="1.0" encoding="UTF-8" standalone="no"?>
<!-- Remote Network Connection (https://rnc.services/) -->
<svg
   xmlns:dc="http://purl.org/dc/elements/1.1/"
   xmlns:cc="http://creativecommons.org/ns#"
   xmlns:rdf="http://www.w3.org/1999/02/22-rdf-syntax-ns#"
   xmlns:svg="http://www.w3.org/2000/svg"
   xmlns="http://www.w3.org/2000/svg"
   width="457.16754"
   height="457.42261"
   id="svg3332"
   version="1.1">
  <defs
     id="defs3334" />
  <g
     id="layer1"
     transform="translate(1.2709002e-8,-594.9396)">
    <path
       style="fill:#03afef"
       d="m 212.39718,1050.9934 c -12.60472,-2.8158 -21.69956,-7.2936 -32.61664,-16.0589 -11.80211,-9.4759 -21.83214,-25.6376 -25.47542,-41.04935 -2.13645,-9.03762 -2.12916,-25.76495 0.0152,-34.89242 2.19783,-9.35503 9.30102,-23.60058 15.50215,-31.0898 5.6671,-6.84425 13.88837,-13.62501 22.07469,-18.20679 19.00474,-10.63671 44.45983,-12.15594 64.95689,-3.87681 34.0992,13.77328 53.74342,49.90548 46.4656,85.46556 -3.28927,16.07171 -9.32379,27.10401 -21.48465,39.27821 -7.33702,7.3451 -10.05571,9.3026 -19,13.6801 -5.74081,2.8096 -13.67667,5.8151 -17.63525,6.679 -8.66395,1.8906 -24.50426,1.925 -32.80259,0.071 z M 66.090035,899.46084 c -29.61613,-4.03549 -54.29019,-24.9069 -63.2096901,-53.46811 -3.13067997,-10.02478 -3.82596997,-27.58733 -1.50875,-38.1101 5.33225,-24.21442 22.4887801,-44.96247 44.8558501,-54.24588 8.79052,-3.64849 20.49358,-6.14151 28.87757,-6.15157 20.88487,-0.0251 40.055735,-8.0583 54.792165,-22.95973 15.029,-15.19727 20.69258,-29.34862 22.8727,-57.1511 1.6876,-21.52152 8.072,-35.99193 22.0445,-49.96442 24.54181,-24.54181 60.91932,-29.45489 91.76592,-12.39374 10.01558,5.53958 23.6871,19.66953 29.00399,29.97654 6.86439,13.30689 8.76844,20.9947 8.79232,35.5 0.0124,7.55535 -0.53702,14.67543 -1.38902,17.99946 -5.82908,22.74201 -20.30571,40.79605 -40.8554,50.95141 -9.95606,4.92014 -18.67925,7.03408 -33.16977,8.0382 -16.05911,1.11282 -25.51303,3.5317 -36.46275,9.32936 -14.51165,7.68363 -29.21297,24.00633 -34.60737,38.42417 -3.23145,8.63681 -4.73536,16.50753 -5.88703,30.80968 -1.5899,19.74444 -6.10645,31.9775 -16.85985,45.66486 -15.63723,19.90369 -43.745965,31.19962 -69.055385,27.75097 z m 305.807145,0.0237 c -9.02669,-1.1393 -21.28707,-5.23942 -29,-9.69819 -9.78701,-5.65778 -23.52516,-19.92856 -28.68157,-29.79359 -22.29707,-42.65776 -2.04836,-93.0113 43.68157,-108.6253 8.74034,-2.9843 10.53953,-3.24829 22.5,-3.30145 15.53531,-0.069 21.76271,1.35003 35.5,8.0896 8.13488,3.99101 10.87329,6.03854 19.05684,14.24895 8.13188,8.15857 10.25282,11.00468 14.22464,19.0882 6.24504,12.71004 8.06513,20.68642 7.98647,35 -0.0516,9.38942 -0.55018,13.15176 -2.71662,20.5 -10.57921,35.88302 -45.79776,59.13064 -82.55133,54.49178 z"
       id="path3395"/>
  </g>
</svg>
